<svg xmlns="http://www.w3.org/2000/svg" xmlns:xlink="http://www.w3.org/1999/xlink" style="isolation:isolate" viewBox="144 27 271 260" width="271" height="260"><defs><clipPath id="_clipPath_isShexilynACZiIujXBjFAwcnDYuteTf"><path d="M0 0h560v315H0z"/></clipPath></defs><g transform="translate(0,0)" clip-path="url(#_clipPath_isShexilynACZiIujXBjFAwcnDYuteTf)"><g style="isolation:isolate" id="cat"><path d="M144.579 197.915 144.938 195.221 150.026 189.415 152.779 178.881 158.406 169.603 163.074 165.592 166.486 163.019 162.117 155.417Q159.004 144.942 159.124 144.463 159.244 143.984 160.082 143.805L162.655 146.438 166.785 149.012 168.402 147.875Q171.933 149.491 172.412 149.91 172.891 150.329 185.401 158.47L188.034 157.871 191.327 160.026 213.354 169.782 224.188 174.032 230.353 170.68 242.504 165.173 272.634 146.077 292.685 139.272 313.222 138.786 340.078 143.647 362.56 152.032 381.152 122.988 392.089 99.899 396.829 85.316 396.707 68.911 393.426 56.394 393.547 45.944 393.304 33.548 397.072 27.594 399.502 27.351 403.269 32.455 405.213 39.26 411.29 56.151 415.421 76.81 414.692 94.674 408.981 115.94 399.623 138.664 379.086 172.326 376.413 189.946 373.253 201.734 364.382 210.848 354.418 219.233 351.866 227.132 353.202 242.079 352.473 249.613 341.779 259.335 319.906 268.813 322.215 270.879 322.336 274.889 322.458 282.788 317.475 287.649 312.128 286.677 311.156 283.882 307.632 279.143 292.077 270.758 274.214 271.001 260.117 264.074 254.527 255.446 254.041 244.145 254.892 239.162 252.461 238.312H236.664L224.876 234.423 216.734 226.646 204.704 218.382 191.215 212.671 181.615 209.025 174.202 207.202 166.424 209.025 160.47 211.091 156.703 210.24 152.328 206.595 149.29 204.772 147.467 202.584 146.766 201.183 144.579 197.915M297.918 231.666 306.36 230.138 307.49 227.412 306.958 225.351 298.117 219.369 296.455 219.901 295.658 225.95 297.918 231.666M144.579 197.915M272.764 251.519 272.212 253.302 273.782 255.296 279.85 256.612 281.93 255.169 280.572 251.138 279.384 250.586 276.031 252.453 273.782 252.071 272.764 251.519M144.579 197.915zM303.709 255.923 307.818 255.796 314.003 252.703 323.576 249.145 327.346 246.053 328.108 240.927 325.016 241.436 316.46 244.147 307.733 245.248 302.439 246.053 301.93 247.535 303.709 255.923z" style="stroke:none;fill:#3465a4;stroke-miterlimit:10"/></g></g></svg>